<?xml version="1.0" encoding="UTF-8" standalone="no"?>
<svg
   xmlns:dc="http://purl.org/dc/elements/1.1/"
   xmlns:cc="http://creativecommons.org/ns#"
   xmlns:rdf="http://www.w3.org/1999/02/22-rdf-syntax-ns#"
   xmlns:svg="http://www.w3.org/2000/svg"
   xmlns="http://www.w3.org/2000/svg"
   viewBox="0 0 80 79.999998"
   height="80"
   width="80"
   id="svg131"
   version="1.1">
  <metadata
     id="metadata137">
    <rdf:RDF>
      <cc:Work
         rdf:about="">
        <dc:format>image/svg+xml</dc:format>
        <dc:type
           rdf:resource="http://purl.org/dc/dcmitype/StillImage" />
        <dc:title></dc:title>
      </cc:Work>
    </rdf:RDF>
  </metadata>
  <defs
     id="defs135" />
  <g
     id="g230">
    <path
       id="path232"
       d="m 39.645903,73.072 c -0.784796,-0.713009 -0.898982,-1.704474 -0.848336,-7.366073 0.03709,-4.146037 -0.0063,-5.160971 -0.278596,-6.517857 -0.436257,-2.173862 -1.031575,-4.286301 -1.811671,-6.428571 -1.24702,-3.424523 -1.708934,-6.051417 -1.725836,-9.814788 -0.01359,-3.026223 0.194536,-4.804716 1.102286,-9.41928 0.926978,-4.712305 1.114216,-6.323571 0.968092,-8.330881 -0.403546,-5.543584 -3.991866,-9.239414 -8.64246,-8.901397 -1.870352,0.135941 -2.920374,0.571051 -4.185047,1.734206 -1.463946,1.346432 -2.107386,2.745905 -2.216762,4.821429 -0.04399,0.834821 -0.151591,1.594196 -0.239104,1.687499 -0.08751,0.0933 -0.160345,0.937054 -0.161848,1.875 -0.0014,0.937947 -0.06203,1.798554 -0.134509,1.912459 -0.07248,0.113905 -0.372586,0.234441 -0.666909,0.267857 -0.514552,0.05842 -0.539121,0.101964 -0.638791,1.132184 -0.157052,1.623353 -0.62863,2.809666 -1.7223,4.332658 -1.944895,2.708368 -1.91011,2.628232 -1.91745,4.417341 l -0.0066,1.607143 0.892857,0.08929 0.892858,0.08928 0.08929,3.839286 c 0.04911,2.111607 0.154297,3.939732 0.233754,4.062499 0.212102,0.327718 0.916837,0.271895 1.252698,-0.09923 0.246904,-0.272824 0.299248,-0.897956 0.340177,-4.0625 l 0.04837,-3.740059 h 2.857146 2.857143 l 0.04828,3.825375 c 0.03098,2.454477 0.118809,3.910355 0.245078,4.0625 0.279888,0.337242 0.939691,0.293346 1.282375,-0.08532 0.246904,-0.272824 0.299249,-0.897956 0.340177,-4.0625 l 0.04837,-3.740059 0.892857,-0.08928 0.892863,-0.08928 0.0526,-1.301527 c 0.04692,-1.160964 -0.0076,-1.419975 -0.504723,-2.398276 -0.30653,-0.603213 -0.823421,-1.40762 -1.148646,-1.787573 -1.067615,-1.247266 -1.899002,-3.137516 -2.03114,-4.618009 -0.110484,-1.237893 -0.146873,-1.327166 -0.564525,-1.384939 -0.808496,-0.111838 -0.892857,-0.317975 -0.892857,-2.181716 0,-0.97625 -0.07914,-1.802223 -0.178571,-1.863673 -0.30925,-0.191127 -0.201218,-2.433114 0.154882,-3.214286 0.808798,-1.774248 2.321932,-2.763037 4.23295,-2.766112 3.655548,-0.0059 5.971743,3.038036 5.968359,7.843551 -8.93e-4,1.252641 -0.506464,4.813379 -0.889109,6.261846 -0.09081,0.34375 -0.376629,1.870536 -0.635154,3.392857 -1.019389,6.002659 -0.733698,11.62899 0.832257,16.390272 0.203036,0.617328 0.325613,1.235886 0.272395,1.374569 -0.29952,0.780552 -4.863638,0.971316 -7.398381,0.309227 -2.870619,-0.749823 -6.380523,-2.737666 -8.633064,-4.889358 -2.808221,-2.682493 -4.070865,-5.395973 -4.714926,-10.132601 -0.148067,-1.088932 -0.333408,-4.884016 -0.436847,-8.944966 -0.09882,-3.879463 -0.266937,-8.017856 -0.373602,-9.196427 -0.553448,-6.115186 -2.49201,-10.887895 -5.4482388,-13.4134795 -0.531977,-0.454481 -0.96723,-0.907765 -0.96723,-1.007296 0,-0.120158 1.545073,-0.147178 4.5982138,-0.08041 5.016911,0.109711 5.738608,0.214317 10.3125,1.4947357 11.080491,3.1018808 18.352644,8.7462928 22.983459,17.8390228 1.945814,3.820657 2.730059,6.357752 2.925718,9.464932 0.394066,6.257964 -2.60307,13.312972 -6.635879,15.620311 -1.5417,0.882071 -1.536202,0.871039 -1.13117,2.2698 0.911109,3.146469 2.357779,9.67932 2.520891,11.38381 0.0282,0.294642 0.145881,0.535714 0.26152,0.535714 0.179207,0 2.962668,-4.049711 3.217879,-4.681753 0.0483,-0.119609 -0.274249,-0.963359 -0.716765,-1.875 -1.242927,-2.560596 -1.269662,-4.338443 -0.109012,-7.248932 1.026127,-2.573157 2.222448,-3.757221 5.516298,-5.459792 5.709025,-2.950955 10.309714,-3.884998 16.441483,-3.337987 2.404984,0.214548 6.495218,0.820844 6.797353,1.007575 0.236383,0.146091 0.194934,0.434778 -0.06285,0.437744 -0.446182,0.0051 -3.96166,1.807061 -5.113178,2.620862 -1.395797,0.98644 -3.915076,3.383475 -4.749908,4.519427 -0.324809,0.441964 -0.801207,1.325893 -1.058665,1.964285 -0.257457,0.638393 -0.614407,1.361607 -0.793221,1.607143 -0.178812,0.245536 -0.542021,1.008929 -0.807129,1.696429 -1.357103,3.519369 -2.433271,4.907378 -4.669073,6.022024 -3.363841,1.677023 -6.286569,1.571075 -8.583582,-0.311154 -0.417209,-0.341871 -0.865575,-0.619869 -0.996368,-0.617773 -0.130791,0.0021 -0.812832,0.986472 -1.515643,2.1875 -2.393803,4.090746 -2.612,4.67256 -2.348564,6.26235 0.397468,2.398642 -0.204155,3.689196 -1.719805,3.689196 -0.632323,0 -0.926847,-0.107184 -1.349386,-0.491071 z m 13.749166,-15.401787 0.08929,-1.696428 1.785714,-0.08929 1.785714,-0.08929 v -0.892849 -0.892857 l -1.785714,-0.08929 -1.785714,-0.08928 -0.08929,-1.696429 -0.08929,-1.696428 h -0.892857 -0.892857 l -0.08929,1.696428 -0.08928,1.696429 -1.785715,0.08928 -1.785714,0.08929 v 0.892857 0.892857 l 1.785714,0.08929 1.785715,0.08929 0.04797,1.517857 c 0.02638,0.834821 0.08583,1.622739 0.132107,1.75093 0.0572,0.158448 0.356302,0.215623 0.934177,0.178571 l 0.850035,-0.0545 z"
       style="fill:#75b242;stroke-width:0.17857142" />
  </g>
</svg>
